<svg width="128" height="128" viewBox="0 0 128 128" xmlns="http://www.w3.org/2000/svg">
  <defs>
    <linearGradient id="bg" x1="0%" y1="0%" x2="100%" y2="100%">
      <stop offset="0%" style="stop-color:#667eea"/>
      <stop offset="100%" style="stop-color:#764ba2"/>
    </linearGradient>
  </defs>
  
  <!-- Background circle -->
  <circle cx="64" cy="64" r="60" fill="url(#bg)" stroke="none"/>
  
  <!-- Phone screen -->
  <rect x="38" y="25" width="52" height="78" rx="8" ry="8" fill="white" stroke="none"/>
  <rect x="42" y="29" width="44" height="70" rx="4" ry="4" fill="#f8f9fa" stroke="none"/>
  
  <!-- Video thumbnails -->
  <rect x="45" y="32" width="38" height="20" rx="2" ry="2" fill="#667eea"/>
  <rect x="45" y="54" width="38" height="20" rx="2" ry="2" fill="#667eea"/>
  <rect x="45" y="76" width="38" height="20" rx="2" ry="2" fill="#667eea"/>
  
  <!-- Play buttons -->
  <polygon points="55,40 55,44 60,42" fill="white"/>
  <polygon points="55,62 55,66 60,64" fill="white"/>
  <polygon points="55,84 55,88 60,86" fill="white"/>
  
  <!-- Scroll arrow -->
  <path d="M95 45 L100 50 L95 55 M100 50 L90 50" stroke="white" stroke-width="3" fill="none" stroke-linecap="round"/>
  <path d="M95 65 L100 70 L95 75 M100 70 L90 70" stroke="white" stroke-width="3" fill="none" stroke-linecap="round"/>
</svg>
